<?xml version="1.0" encoding="utf-8"?>
<!DOCTYPE svg PUBLIC "-//W3C//DTD SVG 20010904//EN" "http://www.w3.org/TR/2001/REC-SVG-20010904/DTD/svg10.dtd">
<svg version="1.0" xmlns="http://www.w3.org/2000/svg" width="1024px" height="1024px" viewBox="0 0 1024 1024" preserveAspectRatio="xMidYMid meet">
 <g fill="#000000">
  <path d="M0 512 l0 -512 512 0 512 0 0 512 0 512 -512 0 -512 0 0 -512z"/>
 </g>
 <g fill="#ffffff">
  <path d="M0 512 l0 -512 512 0 512 0 0 512 0 512 -512 0 -512 0 0 -512z m564.2 58.9 c2.9 -0.6 6.9 -2 8.9 -3 10.1 -5.1 13.8 -18.1 7.3 -25.8 -3.3 -4 -6.4 -4.9 -17.9 -5.4 -10.6 -0.5 -13.5 -1.2 -13.5 -3.2 0 -0.8 2.5 -1.4 7.6 -1.8 9.2 -0.7 15.9 -3.7 19.2 -8.7 2 -3 2.3 -4.5 2 -9.7 l-0.4 -6.3 3.3 -1.1 c3 -1 3.3 -1.4 3.3 -5.3 l0 -4.3 -16.7 -0.7 c-19 -0.7 -25 0.3 -29.5 5.1 -3.8 4.2 -4.8 6.6 -4.8 12.3 0 6 2.3 11.5 5.7 13.7 l2.4 1.6 -3.2 2.7 c-3.9 3.2 -4.4 7.8 -1.1 11.3 2.6 2.8 2.8 3.7 0.6 3.7 -0.9 0 -3.1 1.5 -5 3.4 -2.7 2.7 -3.4 4.2 -3.4 7.5 0 7.4 3.1 11.1 11.5 13.7 5.1 1.6 16.8 1.7 23.7 0.3z m250.3 -16.5 c15.8 -4.1 27.9 -17.6 30.6 -34.3 2.8 -17.7 -7.1 -36 -24 -44.4 -6.1 -3 -7.2 -3.2 -17.1 -3.2 -13.6 0.1 -19.5 2.3 -28.6 10.7 -17.5 16.4 -18.6 42.1 -2.3 59.3 2.8 3 7.1 6.6 9.5 8 9 5.3 21.1 6.8 31.9 3.9z m-520.1 -5.8 c10.8 -3.3 16.7 -12 16.8 -24.8 0.1 -9.2 -1.6 -14.7 -6 -19.8 -4.4 -5.2 -10.1 -8.1 -17.3 -8.7 -12 -1.1 -21.7 3.6 -26.3 12.8 -2.1 4.4 -2.6 6.7 -2.6 13.2 0 9.9 1.4 14.6 5.8 19.7 6.9 8.2 18.1 11 29.6 7.6z m200.5 0.4 c1.9 -0.5 5.1 -2.3 7.1 -3.9 l3.7 -3 1.6 3.5 c1.6 3.4 1.7 3.4 8.2 3.4 l6.5 0 0 -18.1 c0 -9.9 -0.5 -19.9 -1.1 -22.3 -1.2 -4.8 -4.4 -8.7 -9.2 -11.3 -4.6 -2.6 -21.1 -2.5 -28.9 0.1 -3.2 1 -5.8 2.1 -5.8 2.4 0 0.2 1.2 3 2.6 6.2 l2.5 5.7 5.2 -1.8 c9.2 -3.2 15.7 -1.9 15.7 3 0 1.5 -1.2 1.9 -7.7 2.5 -14.8 1.3 -21.8 5.4 -23.3 13.5 -2.7 14.7 8.3 24.3 22.9 20.1z m139.4 -1.4 l3.7 -1.5 0 -6.7 c0 -5.9 -0.2 -6.5 -1.7 -5.9 -3.8 1.6 -11.9 3.5 -15.1 3.5 -6.6 0 -12.2 -3.9 -12.2 -8.4 0 -1.4 2.2 -1.6 16.1 -1.6 l16.1 0 -0.4 -9 c-0.4 -8 -0.7 -9.5 -3.4 -13.2 -4.1 -5.9 -10 -9 -18.3 -9.6 -18.9 -1.3 -30.2 10.5 -28.9 30 0.9 12 7.3 20.5 17.5 23.4 6 1.8 21.5 1.2 26.6 -1z m30 1.3 c5 -2.3 6.1 -9.1 2.3 -13.6 -2.1 -2.4 -3.2 -2.8 -7.5 -2.8 -6.6 0 -9.6 2.7 -9.6 8.6 0 7.2 7.6 11.1 14.8 7.8z m29.4 -1.3 c2.3 -2 2.8 -3.2 2.7 -6.6 -0.2 -6 -3 -8.5 -9.5 -8.5 -4.3 0 -5.4 0.4 -7.5 2.8 -2.6 3.1 -3 6.2 -1.3 10.1 2.3 5 10.9 6.2 15.6 2.2z m27.8 -0.1 c2.7 -2.6 3.4 -8 1.5 -11.4 -2.4 -4.6 -12.1 -5.1 -16 -0.9 -2.9 3.2 -2.7 9.2 0.5 12.3 1.8 1.9 3.5 2.5 7 2.5 3.5 0 5.2 -0.6 7 -2.5z m-523.7 -22.4 c-0.2 -13.2 -0.1 -23.7 0.2 -23.4 0.3 0.2 5.9 10.9 12.6 23.6 l12 23.2 12.2 0.3 12.2 0.3 0 -34.6 0 -34.5 -8 0 -8 0 -0.2 23.5 -0.3 23.6 -12.3 -23.6 -12.4 -23.5 -11.9 0 -11.9 0 0 34.5 0 34.5 8 0 8.1 0 -0.3 -23.9z m168.2 -2.6 l0 -26.5 -9.5 0 -9.5 0 0 26.5 0 26.5 9.5 0 9.5 0 0 -26.5z m31.2 9 c0.3 -15.9 0.5 -17.6 2.3 -19.4 3.1 -3 5.9 -3.4 8.6 -1.2 2.3 1.9 2.4 2.3 2.7 20 l0.4 18.1 8.8 0 8.8 0 0.4 -16.2 c0.3 -17.9 1.5 -22 6.2 -23.2 6.7 -1.7 7.9 1.4 8.4 22.2 l0.5 17.2 8.9 0 8.9 0 -0.3 -21.2 c-0.3 -19.2 -0.5 -21.6 -2.3 -24.8 -5.3 -9.1 -21.3 -10.7 -29.3 -3 l-2.3 2.2 -2.2 -2 c-7.2 -6.7 -23 -6.6 -28.6 0.1 -1.9 2.4 -2.8 2.1 -4 -1.3 -1 -3 -1.1 -3 -8 -3 l-7.1 0 0 26.5 0 26.5 9.4 0 9.5 0 0.3 -17.5z m-32.9 -43.6 c2.3 -2.9 2.2 -8.4 -0.3 -10.9 -1.5 -1.5 -3.3 -2 -7.5 -2 -6.9 0 -9.5 2.2 -9.5 7.8 0 6 3.8 8.5 11.5 7.6 2.4 -0.3 4.7 -1.3 5.8 -2.5z"/>
  <path d="M549.5 560.3 c-2.6 -0.6 -5.5 -3.2 -5.5 -4.9 0 -0.7 1 -2 2.2 -2.8 3.2 -2.2 18 -2.2 20.2 0 0.9 0.8 1.6 1.9 1.6 2.3 0 1.9 -4 4.2 -9 5.1 -5.5 1 -6.3 1.1 -9.5 0.3z"/>
  <path d="M551 519.1 c-1.7 -3.3 -1.2 -9.9 1 -12.1 4.2 -4.2 9 -0.9 9 6.3 0 5.7 -1.4 7.7 -5.5 7.7 -2.4 0 -3.8 -0.6 -4.5 -1.9z"/>
  <path d="M796.4 549 c-10.2 -2.1 -21.2 -11 -25.7 -20.8 -1.8 -3.8 -2.2 -6.6 -2.2 -14.2 0 -8.3 0.3 -10.2 2.7 -15 7.7 -15.6 24.2 -23.6 40.4 -19.7 29.8 7.4 37.4 45.5 12.8 63.7 -7.4 5.4 -19 7.9 -28 6z m-9.3 -15.6 c8.3 -8.9 22 -9.4 31.4 -1.2 4.1 3.6 4.9 3.9 7.1 3 1.3 -0.7 2.4 -1.6 2.4 -2.1 0 -2 -10.2 -10 -14.7 -11.5 -10.5 -3.6 -21.7 -1.1 -29.6 6.5 -4.9 4.7 -5 5 -3.1 6.4 2.7 2 3.7 1.9 6.5 -1.1z m46.3 -21 c0.9 -0.8 1.6 -2.2 1.6 -3 0 -1.6 -3.7 -9.4 -4.5 -9.4 -0.8 0 -4.5 7.8 -4.5 9.4 0 1.8 2.7 4.6 4.5 4.6 0.7 0 2.1 -0.7 2.9 -1.6z m-39.9 -10.4 l5.9 -6 -2.2 -2.2 -2.2 -2.3 -6.2 6.2 c-6.1 6.1 -6.2 6.2 -4.3 8.3 1 1.1 2.1 2 2.4 2 0.4 0 3.3 -2.7 6.6 -6z m29 4 c1.9 -2.1 1.8 -2.2 -4.3 -8.3 l-6.2 -6.2 -2.2 2.3 -2.2 2.2 5.9 6 c3.3 3.3 6.2 6 6.6 6 0.3 0 1.4 -0.9 2.4 -2z"/>
  <path d="M280.1 534.1 c-3.7 -3.7 -4 -17.6 -0.6 -22.8 1.2 -1.8 2.5 -2.3 5.5 -2.3 5.8 0 7.5 3.1 7.5 13.5 0 10.1 -1.8 13.5 -7 13.5 -2.1 0 -4.3 -0.8 -5.4 -1.9z"/>
  <path d="M491.6 535.4 c-3.5 -3.4 -1.1 -8 4.9 -9.4 6.3 -1.5 6.5 -1.4 6.5 2.9 0 3.1 -0.6 4.4 -2.6 6 -3.2 2.5 -6.7 2.7 -8.8 0.5z"/>
  <path d="M609 515 c0 -2.5 2.6 -6 5.2 -6.9 4.6 -1.6 8.7 0.6 10.2 5.7 0.7 2.2 0.6 2.2 -7.3 2.2 -4.5 0 -8.1 -0.4 -8.1 -1z"/>
 </g>
</svg>